<svg width="32" height="32" viewBox="0 0 32 32" fill="none" xmlns="http://www.w3.org/2000/svg">
<path d="M15.9998 18.6666C18.9411 18.6666 21.3331 16.2746 21.3331 13.3333C21.3331 10.392 18.9411 7.99996 15.9998 7.99996C13.0584 7.99996 10.6664 10.392 10.6664 13.3333C10.6664 16.2746 13.0584 18.6666 15.9998 18.6666ZM15.9998 10.6666C17.4704 10.6666 18.6664 11.8626 18.6664 13.3333C18.6664 14.804 17.4704 16 15.9998 16C14.5291 16 13.3331 14.804 13.3331 13.3333C13.3331 11.8626 14.5291 10.6666 15.9998 10.6666ZM15.2265 29.0853C15.4521 29.2464 15.7225 29.3331 15.9998 29.3331C16.2771 29.3331 16.5475 29.2464 16.7731 29.0853C17.1785 28.7986 26.7051 21.92 26.6665 13.3333C26.6665 7.45196 21.8811 2.66663 15.9998 2.66663C10.1185 2.66663 5.33313 7.45196 5.33313 13.3266C5.29446 21.92 14.8211 28.7986 15.2265 29.0853ZM15.9998 5.33329C20.4118 5.33329 23.9998 8.92129 23.9998 13.34C24.0278 19.2573 18.1491 24.5706 15.9998 26.3133C13.8518 24.5693 7.97179 19.2546 7.99979 13.3333C7.99979 8.92129 11.5878 5.33329 15.9998 5.33329Z" fill="white"/>
<path d="M15.9998 18.6666C18.9411 18.6666 21.3331 16.2746 21.3331 13.3333C21.3331 10.392 18.9411 7.99996 15.9998 7.99996C13.0584 7.99996 10.6664 10.392 10.6664 13.3333C10.6664 16.2746 13.0584 18.6666 15.9998 18.6666ZM15.9998 10.6666C17.4704 10.6666 18.6664 11.8626 18.6664 13.3333C18.6664 14.804 17.4704 16 15.9998 16C14.5291 16 13.3331 14.804 13.3331 13.3333C13.3331 11.8626 14.5291 10.6666 15.9998 10.6666ZM15.2265 29.0853C15.4521 29.2464 15.7225 29.3331 15.9998 29.3331C16.2771 29.3331 16.5475 29.2464 16.7731 29.0853C17.1785 28.7986 26.7051 21.92 26.6665 13.3333C26.6665 7.45196 21.8811 2.66663 15.9998 2.66663C10.1185 2.66663 5.33313 7.45196 5.33313 13.3266C5.29446 21.92 14.8211 28.7986 15.2265 29.0853ZM15.9998 5.33329C20.4118 5.33329 23.9998 8.92129 23.9998 13.34C24.0278 19.2573 18.1491 24.5706 15.9998 26.3133C13.8518 24.5693 7.97179 19.2546 7.99979 13.3333C7.99979 8.92129 11.5878 5.33329 15.9998 5.33329Z" fill="white"/>
</svg>
