<svg width="24" height="25" viewBox="0 0 24 25" fill="none" xmlns="http://www.w3.org/2000/svg">
<g id="Icon">
<path id="Vector" d="M21.5933 7.75867C21.4794 7.33607 21.2568 6.95068 20.9477 6.64084C20.6386 6.331 20.2537 6.10753 19.8313 5.99267C18.2653 5.56267 12.0003 5.55567 12.0003 5.55567C12.0003 5.55567 5.73633 5.54867 4.16933 5.95967C3.74725 6.07982 3.36315 6.30645 3.0539 6.61781C2.74464 6.92916 2.52062 7.31479 2.40333 7.73767C1.99033 9.30367 1.98633 12.5517 1.98633 12.5517C1.98633 12.5517 1.98233 15.8157 2.39233 17.3657C2.62233 18.2227 3.29733 18.8997 4.15533 19.1307C5.73733 19.5607 11.9853 19.5677 11.9853 19.5677C11.9853 19.5677 18.2503 19.5747 19.8163 19.1647C20.2388 19.05 20.6241 18.8271 20.934 18.5179C21.2439 18.2086 21.4677 17.8239 21.5833 17.4017C21.9973 15.8367 22.0003 12.5897 22.0003 12.5897C22.0003 12.5897 22.0203 9.32467 21.5933 7.75867ZM9.99633 15.5607L10.0013 9.56067L15.2083 12.5657L9.99633 15.5607Z" fill="white"/>
</g>
</svg>
