<svg width="32" height="32" viewBox="0 0 32 32" fill="none" xmlns="http://www.w3.org/2000/svg">
<path d="M26.667 5.33337H5.33366C3.86299 5.33337 2.66699 6.52937 2.66699 8.00004V24C2.66699 25.4707 3.86299 26.6667 5.33366 26.6667H26.667C28.1377 26.6667 29.3337 25.4707 29.3337 24V8.00004C29.3337 6.52937 28.1377 5.33337 26.667 5.33337ZM26.667 8.00004V8.68137L16.0003 16.9787L5.33366 8.68271V8.00004H26.667ZM5.33366 24V12.0587L15.1817 19.7187C15.4151 19.9021 15.7034 20.0018 16.0003 20.0018C16.2972 20.0018 16.5855 19.9021 16.819 19.7187L26.667 12.0587L26.6697 24H5.33366Z" fill="white"/>
</svg>
