<svg width="24" height="25" viewBox="0 0 24 25" fill="none" xmlns="http://www.w3.org/2000/svg">
<g id="Icon">
<path id="Vector" fill-rule="evenodd" clip-rule="evenodd" d="M16 3.79834H8C5.23858 3.79834 3 6.03692 3 8.79834V16.7983C3 19.5597 5.23858 21.7983 8 21.7983H16C18.7614 21.7983 21 19.5597 21 16.7983V8.79834C21 6.03692 18.7614 3.79834 16 3.79834ZM19.25 16.7983C19.2445 18.5909 17.7926 20.0428 16 20.0483H8C6.20735 20.0428 4.75549 18.5909 4.75 16.7983V8.79834C4.75549 7.00569 6.20735 5.55383 8 5.54834H16C17.7926 5.55383 19.2445 7.00569 19.25 8.79834V16.7983ZM16.75 9.04834C17.3023 9.04834 17.75 8.60062 17.75 8.04834C17.75 7.49606 17.3023 7.04834 16.75 7.04834C16.1977 7.04834 15.75 7.49606 15.75 8.04834C15.75 8.60062 16.1977 9.04834 16.75 9.04834ZM12 8.29834C9.51472 8.29834 7.5 10.3131 7.5 12.7983C7.5 15.2836 9.51472 17.2983 12 17.2983C14.4853 17.2983 16.5 15.2836 16.5 12.7983C16.5027 11.604 16.0294 10.4579 15.1849 9.61342C14.3404 8.76893 13.1943 8.29568 12 8.29834ZM9.25 12.7983C9.25 14.3171 10.4812 15.5483 12 15.5483C13.5188 15.5483 14.75 14.3171 14.75 12.7983C14.75 11.2795 13.5188 10.0483 12 10.0483C10.4812 10.0483 9.25 11.2795 9.25 12.7983Z" fill="white"/>
</g>
</svg>
